<?xml version="1.0" encoding="UTF-8"?>
<svg version="1.1" xmlns="http://www.w3.org/2000/svg" width="400" height="240">
<path d="M0 0 C132 0 264 0 400 0 C400 79.2 400 158.4 400 240 C268 240 136 240 0 240 C0 160.8 0 81.6 0 0 Z " fill="#FEFEFE" transform="translate(0,0)"/>
<path d="M0 0 C0.83402344 0.47953125 1.66804688 0.9590625 2.52734375 1.453125 C4.22310547 2.31164062 4.22310547 2.31164062 5.953125 3.1875 C6.57590332 3.51129639 7.19868164 3.83509277 7.84033203 4.16870117 C28.45302862 14.83243688 49.68753312 20.3005676 72.828125 22.09375 C76.52734375 22.453125 76.52734375 22.453125 77.52734375 23.453125 C79.01161007 31.80080719 78.73034914 40.44596893 78.71484375 48.890625 C78.71294037 49.9551741 78.71294037 49.9551741 78.71099854 51.04122925 C78.5893545 86.77491866 70.55112796 122.26322666 47.52734375 150.453125 C46.88023437 151.25363281 46.233125 152.05414063 45.56640625 152.87890625 C34.80070667 165.60000841 14.98885985 181.9439199 -2.4440918 183.55517578 C-6.17069258 183.36770206 -9.07348077 181.7380495 -12.28515625 179.953125 C-12.97947754 179.58437256 -13.67379883 179.21562012 -14.38916016 178.83569336 C-16.43341516 177.73506798 -18.45554047 176.6026089 -20.47265625 175.453125 C-22.02146484 174.57333984 -22.02146484 174.57333984 -23.6015625 173.67578125 C-30.26250394 169.64889631 -35.87019647 164.83079472 -41.47265625 159.453125 C-42.8184375 158.21949219 -42.8184375 158.21949219 -44.19140625 156.9609375 C-67.983246 134.43888695 -79.44313112 99.56661617 -81.47265625 67.453125 C-81.59371101 62.54162624 -81.61685715 57.63445104 -81.60302734 52.72167969 C-81.59766688 50.45761419 -81.60300151 48.193747 -81.609375 45.9296875 C-81.61785656 29.6468844 -81.61785656 29.6468844 -80.47265625 23.453125 C-78.84945372 21.82992247 -76.92338509 22.11474813 -74.6796875 21.91015625 C-53.50374632 19.79795642 -32.20577259 15.69333053 -13.3984375 5.2265625 C-12.72095459 4.84999512 -12.04347168 4.47342773 -11.34545898 4.08544922 C-10.0458968 3.34887713 -8.75675534 2.59349994 -7.48071289 1.81689453 C-3.13494492 -0.69335275 -3.13494492 -0.69335275 0 0 Z " fill="#3B94D0" transform="translate(201.47265625,28.546875)"/>
<path d="M0 0 C0.83402344 0.47953125 1.66804688 0.9590625 2.52734375 1.453125 C4.22310547 2.31164062 4.22310547 2.31164062 5.953125 3.1875 C6.57590332 3.51129639 7.19868164 3.83509277 7.84033203 4.16870117 C28.45302862 14.83243688 49.68753312 20.3005676 72.828125 22.09375 C76.52734375 22.453125 76.52734375 22.453125 77.52734375 23.453125 C79.01161007 31.80080719 78.73034914 40.44596893 78.71484375 48.890625 C78.71294037 49.9551741 78.71294037 49.9551741 78.71099854 51.04122925 C78.5893545 86.77491866 70.55112796 122.26322666 47.52734375 150.453125 C46.88023437 151.25363281 46.233125 152.05414063 45.56640625 152.87890625 C34.80070667 165.60000841 14.98885985 181.9439199 -2.4440918 183.55517578 C-6.17069258 183.36770206 -9.07348077 181.7380495 -12.28515625 179.953125 C-12.97947754 179.58437256 -13.67379883 179.21562012 -14.38916016 178.83569336 C-16.43341516 177.73506798 -18.45554047 176.6026089 -20.47265625 175.453125 C-22.02146484 174.57333984 -22.02146484 174.57333984 -23.6015625 173.67578125 C-30.26250394 169.64889631 -35.87019647 164.83079472 -41.47265625 159.453125 C-42.8184375 158.21949219 -42.8184375 158.21949219 -44.19140625 156.9609375 C-67.983246 134.43888695 -79.44313112 99.56661617 -81.47265625 67.453125 C-81.59371101 62.54162624 -81.61685715 57.63445104 -81.60302734 52.72167969 C-81.59766688 50.45761419 -81.60300151 48.193747 -81.609375 45.9296875 C-81.61785656 29.6468844 -81.61785656 29.6468844 -80.47265625 23.453125 C-78.84945372 21.82992247 -76.92338509 22.11474813 -74.6796875 21.91015625 C-53.50374632 19.79795642 -32.20577259 15.69333053 -13.3984375 5.2265625 C-12.72095459 4.84999512 -12.04347168 4.47342773 -11.34545898 4.08544922 C-10.0458968 3.34887713 -8.75675534 2.59349994 -7.48071289 1.81689453 C-3.13494492 -0.69335275 -3.13494492 -0.69335275 0 0 Z M-9.22265625 14.453125 C-27.37930252 23.99092245 -48.35277471 29.34889421 -68.72485352 31.19165039 C-70.49749161 31.27972565 -70.49749161 31.27972565 -71.47265625 32.453125 C-74.12101971 73.3036748 -67.11726586 115.85848448 -39.90478516 147.75878906 C-30.347482 158.44645547 -14.88891499 171.11876363 -0.47265625 173.453125 C2.41608282 172.50221089 4.60178532 171.58531556 7.21484375 170.140625 C7.91037354 169.77324219 8.60590332 169.40585938 9.32250977 169.02734375 C15.89587613 165.45353327 21.75588404 161.2190156 27.52734375 156.453125 C28.70876953 155.51726562 28.70876953 155.51726562 29.9140625 154.5625 C50.01168794 137.86709038 60.64075154 111.52116664 65.52734375 86.453125 C65.6754248 85.72883301 65.82350586 85.00454102 65.97607422 84.25830078 C69.3546839 67.11794832 68.83427571 49.83491777 68.52734375 32.453125 C67.96039795 32.35813721 67.39345215 32.26314941 66.80932617 32.1652832 C45.4292075 28.54062278 22.55874714 24.59590161 3.69921875 13.20703125 C-1.62058117 10.26541775 -4.27261803 11.69489475 -9.22265625 14.453125 Z " fill="#07537D" transform="translate(201.47265625,28.546875)"/>
<path d="M0 0 C4.4549306 3.38962111 7.18085887 6.85463837 8.875 12.1875 C9.01210218 14.83357209 9.06562972 17.36219013 9 20 C8.99097656 20.69287109 8.98195312 21.38574219 8.97265625 22.09960938 C8.94926157 23.79572395 8.91339641 25.49165871 8.875 27.1875 C9.65875 27.14625 10.4425 27.105 11.25 27.0625 C13.875 27.1875 13.875 27.1875 15.875 29.1875 C16.08745194 32.23755447 16.17895229 35.19444627 16.17578125 38.24609375 C16.18006638 39.14618668 16.1843515 40.0462796 16.18876648 40.97364807 C16.1945153 42.87931476 16.19500599 44.78500339 16.19067383 46.69067383 C16.18751631 49.6099181 16.21095734 52.52814694 16.23632812 55.44726562 C16.23860127 57.29687372 16.23930454 59.14648454 16.23828125 60.99609375 C16.247491 61.87116074 16.25670074 62.74622772 16.26618958 63.64781189 C16.25996078 64.46198074 16.25373199 65.2761496 16.24731445 66.11499023 C16.24794388 66.83065659 16.2485733 67.54632294 16.2492218 68.28367615 C15.748335 70.83189816 14.98207702 71.68606395 12.875 73.1875 C10.63623047 73.56845093 10.63623047 73.56845093 7.9921875 73.57568359 C7.00105957 73.58514008 6.00993164 73.59459656 4.98876953 73.6043396 C3.91997559 73.59826691 2.85118164 73.59219421 1.75 73.5859375 C0.65155762 73.58880768 -0.44688477 73.59167786 -1.57861328 73.59463501 C-3.90202347 73.59667736 -6.22545078 73.59113563 -8.54882812 73.57861328 C-12.11106712 73.56256278 -15.67217142 73.57845698 -19.234375 73.59765625 C-21.48958585 73.59567385 -23.74479598 73.59183024 -26 73.5859375 C-27.06879395 73.59201019 -28.13758789 73.59808289 -29.23876953 73.6043396 C-30.72546143 73.59015488 -30.72546143 73.59015488 -32.2421875 73.57568359 C-33.11472168 73.57329681 -33.98725586 73.57091003 -34.88623047 73.56845093 C-37.125 73.1875 -37.125 73.1875 -38.90690613 71.91777039 C-40.39204632 69.80816771 -40.4995697 68.6792465 -40.49731445 66.11499023 C-40.50354324 65.30082138 -40.50977203 64.48665253 -40.51618958 63.64781189 C-40.50697983 62.7727449 -40.49777008 61.89767792 -40.48828125 60.99609375 C-40.48877975 60.0950441 -40.48927826 59.19399445 -40.48979187 58.26564026 C-40.48745198 56.36172275 -40.47772845 54.45780212 -40.46118164 52.55395508 C-40.43756222 49.63269545 -40.44062456 46.71234663 -40.44726562 43.79101562 C-40.44168982 41.94270287 -40.43458056 40.09439397 -40.42578125 38.24609375 C-40.42669266 37.36900253 -40.42760406 36.49191132 -40.42854309 35.58824158 C-40.35602945 29.41852945 -40.35602945 29.41852945 -38.125 27.1875 C-35.5 27.0625 -35.5 27.0625 -33.125 27.1875 C-33.17140625 26.1975 -33.2178125 25.2075 -33.265625 24.1875 C-33.54908359 15.67619769 -33.55735541 8.96328246 -27.51171875 2.44921875 C-19.22444093 -5.25004822 -9.67879576 -5.61370154 0 0 Z " fill="#F8FBFC" transform="translate(212.125,78.8125)"/>
<path d="M0 0 C2.13759677 0.9935309 4.24056358 2.06344347 6.3125 3.1875 C25.0037569 12.86632151 45.37074533 16.68704235 66 20 C66.74852785 62.38970788 62.39472683 106.17620777 31.64306641 138.37744141 C23.55317975 146.36635474 14.07624259 152.79514951 4 158 C2.91912109 158.67869141 2.91912109 158.67869141 1.81640625 159.37109375 C-0.7099676 160.67487458 -2.13801306 161.08177106 -5 161 C-15.4820881 157.32849613 -24.48990128 151.02737288 -33 144 C-33.78761719 143.37609375 -34.57523438 142.7521875 -35.38671875 142.109375 C-55.48434419 125.41396538 -66.11340779 99.06804164 -71 74 C-71.22212158 72.91356201 -71.22212158 72.91356201 -71.44873047 71.80517578 C-73.84698413 59.63836253 -74.2665885 47.60892996 -74.25 35.25 C-74.24931519 34.50074249 -74.24863037 33.75148499 -74.2479248 32.97952271 C-74.20936386 20.20936386 -74.20936386 20.20936386 -73 19 C-70.83967658 18.70327574 -68.67835845 18.41260471 -66.51342773 18.15161133 C-47.44214799 15.81129791 -24.53697484 11.07056017 -8.3125 0.19921875 C-5.09737149 -1.46808607 -3.44308253 -0.99059535 0 0 Z M-13.625 9.25 C-16.41018234 10.51500484 -19.2009061 11.76606069 -22 13 C-23.13538208 13.50345947 -23.13538208 13.50345947 -24.29370117 14.01708984 C-31.05345924 16.87964394 -37.90347415 18.5616772 -45.0625 20.125 C-46.74182617 20.50205078 -46.74182617 20.50205078 -48.45507812 20.88671875 C-51.6350043 21.59917142 -54.81710973 22.30092755 -58 23 C-59.76964686 23.39270857 -61.53919288 23.78587209 -63.30859375 24.1796875 C-64.52675781 24.45039062 -65.74492187 24.72109375 -67 25 C-67.30344449 37.88627621 -67.37934267 50.6379237 -65.6875 63.4375 C-65.56979248 64.33992432 -65.45208496 65.24234863 -65.33081055 66.17211914 C-64.39955387 72.60631034 -62.82823058 78.76645498 -61 85 C-60.56107422 86.53527344 -60.56107422 86.53527344 -60.11328125 88.1015625 C-51.59060393 114.95838957 -35.55397651 136.9941009 -10.5 150.625 C-6.81552115 152.07247384 -4.90372266 152.36701666 -1 152 C21.62499748 142.05583943 38.59354419 122.41105945 47.88867188 99.84228516 C52.43096367 88.03809614 56.0488416 76.00054775 57.6875 63.4375 C57.81487549 62.47384521 57.94225098 61.51019043 58.07348633 60.51733398 C59.47988856 48.70864881 59.27951749 36.87017597 59 25 C58.24605957 24.84966309 57.49211914 24.69932617 56.71533203 24.54443359 C37.96676388 20.76846226 19.90939601 16.86457003 2.76635742 8.18383789 C-3.6364146 4.98290437 -7.45583793 6.40358812 -13.625 9.25 Z " fill="#F2F7F8" transform="translate(204,41)"/>
<path d="M0 0 C4.4549306 3.38962111 7.18085887 6.85463837 8.875 12.1875 C9.01210218 14.83357209 9.06562972 17.36219013 9 20 C8.99097656 20.69287109 8.98195312 21.38574219 8.97265625 22.09960938 C8.94926157 23.79572395 8.91339641 25.49165871 8.875 27.1875 C7.946875 26.98125 7.01875 26.775 6.0625 26.5625 C2.72326598 25.82057034 2.72326598 25.82057034 -0.125 28.1875 C-1.99809243 26.31440757 -1.30221858 22.94326041 -1.375 20.4375 C-1.55450222 14.59140198 -1.55450222 14.59140198 -4.5625 9.875 C-8.71423011 7.14093383 -11.09178177 6.76806515 -16.125 7.1875 C-19.34329104 9.11043518 -19.34329104 9.11043518 -22.125 11.1875 C-23.115 11.1875 -24.105 11.1875 -25.125 11.1875 C-26.115 11.8475 -27.105 12.5075 -28.125 13.1875 C-29.115 12.8575 -30.105 12.5275 -31.125 12.1875 C-31.455 17.1375 -31.785 22.0875 -32.125 27.1875 C-32.455 27.1875 -32.785 27.1875 -33.125 27.1875 C-33.92532053 10.11399543 -33.92532053 10.11399543 -29.125 4.1875 C-20.80168415 -4.78072168 -10.6619714 -6.18394341 0 0 Z " fill="#F3F9FA" transform="translate(212.125,78.8125)"/>
<path d="M0 0 C3.70390021 2.02666238 5.65363011 3.48044516 8 7 C8.27232345 11.67851685 8.08605913 16.30977764 8 21 C0.74 21 -6.52 21 -14 21 C-14.66964286 6.80357143 -14.66964286 6.80357143 -11.625 3.1875 C-7.57393909 -0.18838409 -5.28708124 -0.4405901 0 0 Z " fill="#3D94D0" transform="translate(203,85)"/>
<path d="M0 0 C3 0.25 3 0.25 5 2.25 C5.21198147 4.86443818 5.05773095 7.01266163 4.4375 9.5625 C3.82804192 13.3063139 4.4286486 16.50447419 5 20.25 C1.7 20.25 -1.6 20.25 -5 20.25 C-4.91621094 19.39535156 -4.83242187 18.54070312 -4.74609375 17.66015625 C-4.64425781 16.55542969 -4.54242188 15.45070312 -4.4375 14.3125 C-4.33308594 13.21035156 -4.22867188 12.10820312 -4.12109375 10.97265625 C-4.08113281 10.07417969 -4.04117188 9.17570312 -4 8.25 C-4.33 7.92 -4.66 7.59 -5 7.25 C-5.1875 4.8125 -5.1875 4.8125 -5 2.25 C-3 0.25 -3 0.25 0 0 Z " fill="#4498D2" transform="translate(200,118.75)"/>
<path d="M0 0 C2.54186606 0.31094086 5.08348598 0.62370536 7.625 0.9375 C8.69427734 1.06801758 8.69427734 1.06801758 9.78515625 1.20117188 C10.83896484 1.33168945 10.83896484 1.33168945 11.9140625 1.46484375 C12.8723999 1.58267212 12.8723999 1.58267212 13.85009766 1.70288086 C16.57502493 2.07946915 19.28660129 2.54776688 22 3 C22 13.89 22 24.78 22 36 C21.67 36 21.34 36 21 36 C21 25.44 21 14.88 21 4 C20.01 4 19.02 4 18 4 C18 4.66 18 5.32 18 6 C14.14763991 8.56824006 11.63558834 7.82735049 7.3125 7.125 C6.2596582 6.96837891 6.2596582 6.96837891 5.18554688 6.80859375 C3.45541171 6.54966196 1.72745882 6.27622343 0 6 C-1.125 2.25 -1.125 2.25 0 0 Z " fill="#DEE9EE" transform="translate(248,58)"/>
<path d="M0 0 C-0.33 0.99 -0.66 1.98 -1 3 C-5.95 3 -10.9 3 -16 3 C-15.67 5.64 -15.34 8.28 -15 11 C-15.66 11 -16.32 11 -17 11 C-17 23.54 -17 36.08 -17 49 C-19.40565389 45.39151916 -19.27341454 42.78599296 -19.23046875 38.62109375 C-19.23001053 37.8943898 -19.22955231 37.16768585 -19.2290802 36.41896057 C-19.22605926 34.87816744 -19.21817764 33.33737732 -19.20581055 31.79663086 C-19.18775556 29.47042654 -19.18529969 27.14462591 -19.18554688 24.81835938 C-19.13457281 3.13457281 -19.13457281 3.13457281 -17 1 C-11.37339744 0.22358636 -5.67842778 -0.15347102 0 0 Z " fill="#175D83" transform="translate(139,50)"/>
<path d="M0 0 C2.12508244 3.18762365 2.5020163 5.26512223 3 9 C2.38640625 9.37769531 1.7728125 9.75539063 1.140625 10.14453125 C-1.52007631 12.45079607 -2.15578377 14.36577215 -3.25 17.6875 C-3.58515625 18.68136719 -3.9203125 19.67523438 -4.265625 20.69921875 C-4.50796875 21.45847656 -4.7503125 22.21773437 -5 23 C-5.33 23 -5.66 23 -6 23 C-6.33 18.71 -6.66 14.42 -7 10 C-6.34 10 -5.68 10 -5 10 C-4.67 9.01 -4.34 8.02 -4 7 C-3.34 7 -2.68 7 -2 7 C-1.855625 6.030625 -1.71125 5.06125 -1.5625 4.0625 C-1 1 -1 1 0 0 Z " fill="#0E5982" transform="translate(128,89)"/>
<path d="M0 0 C3.63 2.31 7.26 4.62 11 7 C10.67 7.66 10.34 8.32 10 9 C8.02 8.34 6.04 7.68 4 7 C4 7.99 4 8.98 4 10 C4.99 10.66 5.98 11.32 7 12 C4.80078125 13.2109375 4.80078125 13.2109375 2 14 C-0.45703125 12.6640625 -0.45703125 12.6640625 -2.8125 10.625 C-3.60269531 9.95726562 -4.39289063 9.28953125 -5.20703125 8.6015625 C-6.09455078 7.80878906 -6.09455078 7.80878906 -7 7 C-6.34 6.34 -5.68 5.68 -5 5 C-2.03 6.98 -2.03 6.98 1 9 C0.835 7.88625 0.67 6.7725 0.5 5.625 C0 2 0 2 0 0 Z " fill="#105881" transform="translate(171,185)"/>
<path d="M0 0 C0.33 0 0.66 0 1 0 C1 8.58 1 17.16 1 26 C0.01 25.67 -0.98 25.34 -2 25 C-2.33 26.65 -2.66 28.3 -3 30 C-3.33 30 -3.66 30 -4 30 C-4.0544207 27.31222198 -4.09387266 24.62556788 -4.125 21.9375 C-4.14175781 21.18533203 -4.15851563 20.43316406 -4.17578125 19.65820312 C-4.21865121 14.70672291 -3.58399375 10.69585549 -2 6 C-1.67 6 -1.34 6 -1 6 C-0.67 4.02 -0.34 2.04 0 0 Z " fill="#4999D2" transform="translate(262,66)"/>
<path d="M0 0 C4.62 0 9.24 0 14 0 C14 0.33 14 0.66 14 1 C13.030625 1.12375 12.06125 1.2475 11.0625 1.375 C9.5465625 1.684375 9.5465625 1.684375 8 2 C7.67 2.66 7.34 3.32 7 4 C6.34 4 5.68 4 5 4 C5.66 5.65 6.32 7.3 7 9 C2.34462607 9.83796731 -1.37078475 10.0161692 -6 9 C-4.3125 7.4375 -4.3125 7.4375 -2 6 C0.75 6.3125 0.75 6.3125 3 7 C3 6.01 3 5.02 3 4 C1.68 3.34 0.36 2.68 -1 2 C-0.67 1.34 -0.34 0.68 0 0 Z " fill="#1C6188" transform="translate(264,51)"/>
<path d="M0 0 C-0.185625 0.61875 -0.37125 1.2375 -0.5625 1.875 C-1.23686176 4.04160178 -1.23686176 4.04160178 0 6 C-3.82320557 7.42258812 -6.91281305 8.24042276 -11 8 C-10.67 6.68 -10.34 5.36 -10 4 C-11.32 3.67 -12.64 3.34 -14 3 C-12.04486839 2.303447 -10.08577524 1.61800435 -8.125 0.9375 C-7.03445312 0.55464844 -5.94390625 0.17179687 -4.8203125 -0.22265625 C-2 -1 -2 -1 0 0 Z " fill="#E5EDF2" transform="translate(178,51)"/>
<path d="M0 0 C2 2 2 2 2.265625 5.1171875 C2.26046875 6.35726562 2.2553125 7.59734375 2.25 8.875 C2.25515625 10.10992187 2.2603125 11.34484375 2.265625 12.6171875 C2.02183826 15.72188334 1.63964816 17.41039696 0 20 C-2.42472438 17.48177725 -2.99254989 16.32466794 -3.07421875 12.765625 C-2.94660156 11.60546875 -2.81898438 10.4453125 -2.6875 9.25 C-2.56761719 8.07953125 -2.44773437 6.9090625 -2.32421875 5.703125 C-2.21722656 4.81109375 -2.11023438 3.9190625 -2 3 C-1.34 3 -0.68 3 0 3 C0 2.01 0 1.02 0 0 Z " fill="#025179" transform="translate(273,109)"/>
<path d="M0 0 C2 2 2 2 2.265625 3.84765625 C2.22600561 9.46370483 1.43690437 14.57312009 0 20 C-2 18 -2 18 -2.265625 15.390625 C-2.21383648 4.98113208 -2.21383648 4.98113208 0 0 Z " fill="#145B83" transform="translate(276,102)"/>
<path d="M0 0 C2.59526457 4.7596947 2.49714502 8.84316714 1 14 C0.7834375 15.2684375 0.7834375 15.2684375 0.5625 16.5625 C0 19 0 19 -2 22 C-2.66 22 -3.32 22 -4 22 C-3.81824219 21.12601563 -3.81824219 21.12601563 -3.6328125 20.234375 C-2.25920651 13.51427184 -1.09358533 6.77092195 0 0 Z " fill="#1B6186" transform="translate(267,108)"/>
<path d="M0 0 C3.3 0.33 6.6 0.66 10 1 C10.33 2.32 10.66 3.64 11 5 C6.02398374 6.71050559 2.57383705 5.00885647 -2 3 C-1.34 2.01 -0.68 1.02 0 0 Z " fill="#F9FCFB" transform="translate(238,57)"/>
<path d="M0 0 C-0.33 0.99 -0.66 1.98 -1 3 C-5.95 3 -10.9 3 -16 3 C-16.33 5.31 -16.66 7.62 -17 10 C-17.33 10 -17.66 10 -18 10 C-18.09765625 3.84765625 -18.09765625 3.84765625 -18 2 C-14.74316577 -1.25683423 -4.36196083 -0.11789083 0 0 Z " fill="#2C698C" transform="translate(139,50)"/>
<path d="M0 0 C0.66 0.33 1.32 0.66 2 1 C1.67 2.32 1.34 3.64 1 5 C2.65 4.67 4.3 4.34 6 4 C4.63016497 7.16115776 4.0109362 7.9927092 1 10 C-1.1875 9.625 -1.1875 9.625 -3 9 C-2.67 7.68 -2.34 6.36 -2 5 C-2.66 4.67 -3.32 4.34 -4 4 C-2.68 2.68 -1.36 1.36 0 0 Z " fill="#EAF1F3" transform="translate(231,172)"/>
<path d="M0 0 C0.33 0 0.66 0 1 0 C1.66 6.27 2.32 12.54 3 19 C2.34 19.33 1.68 19.66 1 20 C0.67 17.36 0.34 14.72 0 12 C-0.66 12 -1.32 12 -2 12 C-1 3.42857143 -1 3.42857143 0 0 Z " fill="#1F6389" transform="translate(131,100)"/>
<path d="M0 0 C5.4185766 -0.22577402 9.77487721 0.53329887 15 2 C15 2.33 15 2.66 15 3 C11.7 3 8.4 3 5 3 C4.67 3.99 4.34 4.98 4 6 C2.68 5.34 1.36 4.68 0 4 C0 2.68 0 1.36 0 0 Z " fill="#E4EEF1" transform="translate(233,55)"/>
<path d="M0 0 C0.66 0 1.32 0 2 0 C2 2.31 2 4.62 2 7 C-0.70879335 8.35439668 -3.00933268 8.06501451 -6 8 C-5.04956626 6.66102417 -4.08940853 5.32894573 -3.125 4 C-2.59132812 3.2575 -2.05765625 2.515 -1.5078125 1.75 C-1.01023438 1.1725 -0.51265625 0.595 0 0 Z " fill="#10577F" transform="translate(244,168)"/>
<path d="M0 0 C2.475 0.495 2.475 0.495 5 1 C5 1.66 5 2.32 5 3 C8.05270463 3.15811388 8.05270463 3.15811388 11 2 C10.67 3.32 10.34 4.64 10 6 C7.36 6 4.72 6 2 6 C1.34 4.02 0.68 2.04 0 0 Z " fill="#024F79" transform="translate(186,36)"/>
<path d="M0 0 C0.66 0.33 1.32 0.66 2 1 C1.67 2.32 1.34 3.64 1 5 C1.66 5 2.32 5 3 5 C3 5.66 3 6.32 3 7 C2.34 7 1.68 7 1 7 C0.67 7.66 0.34 8.32 0 9 C-1.65 6.69 -3.3 4.38 -5 2 C-4.01 2 -3.02 2 -2 2 C-1.34 1.34 -0.68 0.68 0 0 Z " fill="#135981" transform="translate(150,169)"/>
<path d="M0 0 C-0.33 1.65 -0.66 3.3 -1 5 C-3.375 5.625 -3.375 5.625 -6 6 C-6.66 5.34 -7.32 4.68 -8 4 C-4.5 0 -4.5 0 0 0 Z " fill="#F5F9FB" transform="translate(168,55)"/>
<path d="M0 0 C0.33 0 0.66 0 1 0 C1.09038099 5.15171623 0.84681133 9.91913204 0 15 C-1.5625 13.8125 -1.5625 13.8125 -3 12 C-2.8125 9.75 -2.8125 9.75 -2 7 C-1.649375 5.741875 -1.29875 4.48375 -0.9375 3.1875 C-0.4734375 1.6096875 -0.4734375 1.6096875 0 0 Z " fill="#1C6188" transform="translate(278,52)"/>
<path d="M0 0 C0.99 0.33 1.98 0.66 3 1 C2.01 1 1.02 1 0 1 C0 0.67 0 0.34 0 0 Z M-2 1 C-2 1.66 -2 2.32 -2 3 C-1.01 2.67 -0.02 2.34 1 2 C1.66 3.65 2.32 5.3 3 7 C-0.91211733 5.84414715 -3.8745041 4.64465038 -7 2 C-4 1 -4 1 -2 1 Z " fill="#1C5F84" transform="translate(212,40)"/>
<path d="M0 0 C0.66 0 1.32 0 2 0 C1.67 5.28 1.34 10.56 1 16 C0.67 16 0.34 16 0 16 C-0.16894443 14.25021843 -0.33506309 12.50016388 -0.5 10.75 C-0.5928125 9.77546875 -0.685625 8.8009375 -0.78125 7.796875 C-0.95800168 5.53697847 -1 3.26679807 -1 1 C-0.67 0.67 -0.34 0.34 0 0 Z " fill="#EBF7FC" transform="translate(188,90)"/>
<path d="M0 0 C1.0326802 2.78823655 1.04509293 3.8677274 0.0625 6.75 C-0.288125 7.4925 -0.63875 8.235 -1 9 C-1.66 9 -2.32 9 -3 9 C-3 9.99 -3 10.98 -3 12 C-3.66 12 -4.32 12 -5 12 C-3.41037341 7.96479403 -1.71767682 3.98188718 0 0 Z " fill="#236389" transform="translate(257,145)"/>
<path d="M0 0 C0.66 0.33 1.32 0.66 2 1 C2 2.98 2 4.96 2 7 C0.68 7 -0.64 7 -2 7 C-2.125 4.625 -2.125 4.625 -2 2 C-1.34 1.34 -0.68 0.68 0 0 Z " fill="#02507C" transform="translate(133,136)"/>
<path d="M0 0 C0.33 0 0.66 0 1 0 C1 3.63 1 7.26 1 11 C0.01 11 -0.98 11 -2 11 C-2.25 3.375 -2.25 3.375 0 0 Z " fill="#3592CE" transform="translate(261,85)"/>
<path d="M0 0 C0.625 1.875 0.625 1.875 1 4 C0.34 4.66 -0.32 5.32 -1 6 C-1.99 6 -2.98 6 -4 6 C-3.67 4.35 -3.34 2.7 -3 1 C-2.01 0.67 -1.02 0.34 0 0 Z " fill="#145B85" transform="translate(242,182)"/>
<path d="M0 0 C1.65 1.65 3.3 3.3 5 5 C4.01 5.495 4.01 5.495 3 6 C0.875 5.0625 0.875 5.0625 -1 4 C-0.67 2.68 -0.34 1.36 0 0 Z " fill="#125980" transform="translate(157,171)"/>
<path d="M0 0 C2.97 0 5.94 0 9 0 C7.625 2 7.625 2 6 4 C5.34 4 4.68 4 4 4 C3.67 3.34 3.34 2.68 3 2 C2.01 1.34 1.02 0.68 0 0 Z " fill="#105B83" transform="translate(141,49)"/>
<path d="M0 0 C1.88391785 3.26545761 2.49287967 6.28111761 3 10 C1 8.875 1 8.875 -1 7 C-1.3125 3.875 -1.3125 3.875 -1 1 C-0.67 0.67 -0.34 0.34 0 0 Z " fill="#D7E3EA" transform="translate(125,125)"/>
<path d="M0 0 C1.1446875 0.3403125 1.1446875 0.3403125 2.3125 0.6875 C-0.37591859 2.93995881 -2.33391875 4.56963958 -5.6875 5.6875 C-5.6875 2.6875 -5.6875 2.6875 -4.5 0.9375 C-2.6875 -0.3125 -2.6875 -0.3125 0 0 Z " fill="#E5EDF2" transform="translate(198.6875,26.3125)"/>
<path d="M0 0 C2.2477975 2.05233685 3.0022242 3.00667261 4 6 C1 6 1 6 -0.6875 4.5 C-1.120625 4.005 -1.55375 3.51 -2 3 C-1.34 3 -0.68 3 0 3 C0 2.01 0 1.02 0 0 Z " fill="#014E78" transform="translate(169,188)"/>
<path d="M0 0 C2.475 0.495 2.475 0.495 5 1 C5 1.99 5 2.98 5 4 C3.35 3.67 1.7 3.34 0 3 C0 2.01 0 1.02 0 0 Z " fill="#145B82" transform="translate(165,182)"/>
<path d="M0 0 C0.33 0.66 0.66 1.32 1 2 C2.32 2 3.64 2 5 2 C5 2.66 5 3.32 5 4 C3.35 4.33 1.7 4.66 0 5 C-0.5625 3.0625 -0.5625 3.0625 -1 1 C-0.67 0.67 -0.34 0.34 0 0 Z " fill="#F7FCFA" transform="translate(177,51)"/>
</svg>
